<?xml version="1.0" encoding="UTF-8" standalone="no"?>
<!-- Created with Inkscape (http://www.inkscape.org/) -->

<svg
   id="svg3589"
   sodipodi:docname="deadDuck.svg"
   viewBox="0 0 690.7 620.52"
   version="1.1"
   inkscape:version="1.1.1 (3bf5ae0d25, 2021-09-20)"
   xmlns:inkscape="http://www.inkscape.org/namespaces/inkscape"
   xmlns:sodipodi="http://sodipodi.sourceforge.net/DTD/sodipodi-0.dtd"
   xmlns="http://www.w3.org/2000/svg"
   xmlns:svg="http://www.w3.org/2000/svg"
   xmlns:rdf="http://www.w3.org/1999/02/22-rdf-syntax-ns#"
   xmlns:cc="http://creativecommons.org/ns#"
   xmlns:dc="http://purl.org/dc/elements/1.1/">
  <defs
     id="defs11" />
  <sodipodi:namedview
     id="namedview3593"
     bordercolor="#666666"
     inkscape:pageshadow="2"
     inkscape:window-y="-9"
     pagecolor="#ffffff"
     inkscape:window-height="1271"
     inkscape:window-maximized="1"
     inkscape:zoom="1.0182338"
     inkscape:window-x="-9"
     showgrid="false"
     borderopacity="1.0"
     inkscape:current-layer="g3628"
     inkscape:cx="183.16029"
     inkscape:cy="255.83515"
     inkscape:window-width="2400"
     inkscape:pageopacity="0.0"
     inkscape:document-units="in"
     inkscape:pagecheckerboard="0" />
  <g
     id="layer1"
     inkscape:label="Layer 1"
     inkscape:groupmode="layer"
     transform="translate(-50.929 -361.09)">
    <g
       id="g3628"
       transform="matrix(5.9032 0 0 5.9032 -2129 -1450.5)">
      <path
         id="path3297"
         style="fill:#ffffff;stroke:#000000;stroke-width:4;stroke-linejoin:round"
         d="m 470.19,392.23794 c -4.8905,0 -8.791,-3.9676 -8.791,-8.8582 v -10.402 c 2.0677,-1.0216 4.4112,-1.6106 6.8449,-1.6106 8.8668,0 16.039,7.5726 16.039,16.911 0,1.3618 -0.1808,2.6904 -0.46975,3.9593 h -13.623 z" />
      <path
         id="path2278"
         sodipodi:nodetypes="cscsccscscscsc"
         style="fill:#ffffff;stroke:#000000;stroke-width:6;stroke-linejoin:round"
         d="m 443.48,409.00794 c -13.043,0 -23.622,-10.888 -23.622,-24.293 0,-7.7316 3.5093,-14.61 8.9924,-19.058 -3.2436,0.33783 -6.5622,0.53686 -9.9319,0.53686 -4.8629,0 -9.6052,-0.45112 -14.227,-1.1408 -3.8847,8.1268 -12.934,15.106 -20.41,17.24 -10.119,-11.161 -12.098,-22.857 -12.002,-33.284 0.11133,-12.122 3.6185,-21.56 8.5888,-28.852 11.516,-6.4736 25.352,-10.267 40.197,-10.267 12.481,0 24.223,2.6856 34.493,7.3818 6.567,7.8888 10.536,17.982 10.536,28.99 0,7.8577 -2.0187,15.23 -5.5699,21.676 4.0666,4.3627 6.5765,10.263 6.5765,16.777 0,13.405 -10.579,24.293 -23.622,24.293 z" />
      <path
         style="fill:none;stroke:#000000;stroke-width:3.4151;stroke-linecap:butt;stroke-linejoin:miter;stroke-miterlimit:4;stroke-dasharray:none;stroke-opacity:1"
         d="m 440.81665,398.20684 10.14833,-11.64563"
         id="path126" />
      <path
         style="fill:none;stroke:#000000;stroke-width:3.4151;stroke-linecap:butt;stroke-linejoin:miter;stroke-miterlimit:4;stroke-dasharray:none;stroke-opacity:1"
         d="M 451.96319,397.95729 440.31756,387.80896"
         id="path126-1" />
    </g>
  </g>
  <metadata
     id="metadata8">
    <rdf:RDF>
      <cc:Work>
        <dc:format>image/svg+xml</dc:format>
        <dc:type
           rdf:resource="http://purl.org/dc/dcmitype/StillImage" />
        <cc:license
           rdf:resource="http://creativecommons.org/publicdomain/zero/1.0/" />
        <dc:publisher>
          <cc:Agent
             rdf:about="http://openclipart.org/">
            <dc:title>Openclipart</dc:title>
          </cc:Agent>
        </dc:publisher>
        <dc:date>2010-08-01T19:10:36</dc:date>
        <dc:description />
        <dc:source>https://openclipart.org/detail/75889/duck-outline-by-gammillian</dc:source>
        <dc:creator>
          <cc:Agent>
            <dc:title>gammillian</dc:title>
          </cc:Agent>
        </dc:creator>
        <dc:subject>
          <rdf:Bag>
            <rdf:li>animal</rdf:li>
            <rdf:li>black and white</rdf:li>
            <rdf:li>coloring page</rdf:li>
            <rdf:li>duck</rdf:li>
            <rdf:li>outline</rdf:li>
          </rdf:Bag>
        </dc:subject>
      </cc:Work>
      <cc:License
         rdf:about="http://creativecommons.org/licenses/publicdomain/">
        <cc:permits
           rdf:resource="http://creativecommons.org/ns#Reproduction" />
        <cc:permits
           rdf:resource="http://creativecommons.org/ns#Distribution" />
        <cc:permits
           rdf:resource="http://creativecommons.org/ns#DerivativeWorks" />
      </cc:License>
    </rdf:RDF>
  </metadata>
</svg>
