<?xml version="1.0" encoding="UTF-8" standalone="no"?>
<!-- Generator: Adobe Illustrator 17.0.0, SVG Export Plug-In . SVG Version: 6.00 Build 0)  -->

<svg
   id="Layer_1"
   enable-background="new 0 0 620.767 589.535"
   xml:space="preserve"
   viewBox="0 0 568.48563 489.79037"
   version="1.1"
   y="0px"
   x="0px"
   sodipodi:docname="deadChicken.svg"
   width="568.48566"
   height="489.79034"
   inkscape:version="1.1.1 (3bf5ae0d25, 2021-09-20)"
   xmlns:inkscape="http://www.inkscape.org/namespaces/inkscape"
   xmlns:sodipodi="http://sodipodi.sourceforge.net/DTD/sodipodi-0.dtd"
   xmlns="http://www.w3.org/2000/svg"
   xmlns:svg="http://www.w3.org/2000/svg"
   xmlns:rdf="http://www.w3.org/1999/02/22-rdf-syntax-ns#"
   xmlns:cc="http://creativecommons.org/ns#"
   xmlns:dc="http://purl.org/dc/elements/1.1/"><defs
   id="defs88" /><sodipodi:namedview
   id="namedview86"
   pagecolor="#ffffff"
   bordercolor="#666666"
   borderopacity="1.0"
   inkscape:pageshadow="2"
   inkscape:pageopacity="0.0"
   inkscape:pagecheckerboard="0"
   showgrid="false"
   inkscape:zoom="1.2196053"
   inkscape:cx="471.87396"
   inkscape:cy="63.545147"
   inkscape:window-width="2400"
   inkscape:window-height="1271"
   inkscape:window-x="-9"
   inkscape:window-y="-9"
   inkscape:window-maximized="1"
   inkscape:current-layer="g78" />
<g
   id="g81"
   transform="rotate(180,291.62934,264.96694)"
   inkscape:export-filename="\\wsl$\Ubuntu\home\fabio\workspace\personal\blockly-game-creator\public\images\chicken.png"
   inkscape:export-xdpi="96"
   inkscape:export-ydpi="96">
	<g
   id="XMLID_2_">
		<g
   id="g28">
			<path
   d="m 578.46,209.86 c 4.989,16.628 -4.989,33.257 -19.954,41.571 -12.216,7.228 -25.375,12.405 -39.021,16.096 -27.182,7.372 -56.337,8.846 -84.018,8.846 l -0.987,0.255 c -1.142,-4.467 -2.428,-8.824 -3.758,-12.981 15.01,-4.656 27.57,-9.611 42.99,-18.868 20.486,-11.706 46.704,-26.849 67.212,-45.761 12.16,-3.88 32.87,-1.63 37.54,10.83 z"
   fill="#c9c8e8"
   id="path2" />
			<path
   d="m 540.92,199.02 c -20.508,18.912 -46.726,34.055 -67.212,45.761 -15.42,9.257 -27.98,14.212 -42.99,18.868 -1.175,-3.703 -2.383,-7.25 -3.57,-10.554 -4.334,-11.274 -12.294,-18.934 -21.739,-24.61 2.073,-13.236 22.648,-31.173 30.053,-38.578 23.28,-21.617 49.885,-39.897 78.154,-53.2 9.977,-4.989 19.954,-8.314 31.594,-11.64 3.326,0 18.28,-4.989 21.606,-4.989 9.977,4.989 6.651,23.28 4.989,33.257 -4.81,17.17 -16.42,32.36 -30.88,45.68 z"
   fill="#d8d6ec"
   id="path4" />
			<path
   d="m 519.62,268.06 c 19.865,-5.122 25.519,28.812 0.643,36.583 -7.006,2.162 -15.764,3.969 -25.131,5.133 -19.411,2.439 -41.449,2.151 -56.06,-3.37 -0.222,-9.722 -2.084,-19.998 -4.601,-29.776 l 0.987,-0.255 c 27.681,0 56.836,-1.474 84.018,-8.846 l 0.14,0.55 z"
   fill="#d8d6ec"
   id="path6" />
			<path
   d="m 495.14,309.78 0.188,1.519 c 0,14.966 -1.663,19.954 -16.628,23.28 -16.495,4.944 -26.45,-4.833 -41.216,-11.474 1.275,-5.21 1.729,-10.853 1.596,-16.695 14.61,5.51 36.65,5.8 56.06,3.36 z"
   fill="#c9c8e8"
   id="path8" />
			<path
   d="m 312.16,278.85 c 7.716,5.632 11.939,19.588 8.569,27.459 l 0.565,2.273 c 14.334,-6.396 25.829,-3.858 31.206,7.605 5.033,-4.855 13.015,-12.216 21.428,-18.934 -0.366,-21.273 -16.473,-17.072 -30.219,-8.769 l -1.364,-2.128 c 3.326,-9.977 3.326,-16.628 -6.651,-18.291 -10.64,-1.52 -18.49,2.5 -23.55,10.79 z m 118.56,-15.2 c 1.33,4.157 2.616,8.514 3.758,12.981 2.516,9.778 4.379,20.054 4.601,29.776 0.133,5.842 -0.321,11.485 -1.596,16.695 -0.843,3.492 -2.051,6.784 -3.68,9.811 -9.301,21.872 -24.71,36.549 -43.345,46.338 -17.881,9.401 -38.722,14.3 -59.962,16.728 v 0.011 c -13.236,1.508 -26.639,2.073 -39.565,2.162 -10.432,0.089 -20.553,-0.133 -30.053,-0.399 -31.594,-1.663 -61.525,-19.943 -79.816,-44.886 -10.775,-14.822 -23.734,-29.643 -34.454,-45.34 0.532,-4.046 -0.698,-9.589 -0.233,-12.394 0.643,-3.858 0.643,-10.941 2.572,-13.513 5.155,1.929 28.324,19.954 31.539,14.799 1.286,-1.929 0,-7.727 0,-9.656 v -12.227 c -0.643,-1.929 -2.572,-5.787 -1.929,-7.716 1.286,-3.226 5.787,-1.297 9.002,-0.654 5.155,1.297 10.942,2.583 16.739,3.869 1.929,0 7.727,1.929 9.656,0.643 3.858,-3.858 -4.512,-16.739 -6.441,-20.597 -1.286,-1.929 -3.858,-5.144 -4.501,-7.727 -1.286,-3.858 0.643,-3.215 4.501,-4.501 4.512,-0.643 23.812,-1.286 24.455,-5.798 -3.858,-2.572 -19.3,-5.787 -19.943,-10.287 -1.297,-5.155 10.287,-10.299 12.87,-14.167 -0.621,-0.443 -1.397,-0.765 -2.284,-0.953 l 0.022,-0.111 c 9.977,-4.989 28.268,-1.663 39.908,-1.663 h 38.245 c 26.594,0 49.874,3.326 76.48,11.64 9.545,3.182 19.477,6.74 28.146,11.972 9.445,5.676 17.404,13.336 21.739,24.61 1.17,3.32 2.37,6.87 3.55,10.57 z"
   fill="#d8d6ec"
   id="path10" />
			<path
   d="m 390.57,379.47 c 0,23.269 6.651,66.503 -23.28,76.48 -21.883,7.66 -27.925,-12.05 -31.394,-31.627 -1.807,-10.177 -2.916,-20.32 -5.188,-26.572 l -0.211,-1.763 v -0.011 c 21.24,-2.428 42.081,-7.328 59.962,-16.728 l 0.11,0.22 z"
   fill="#d8d6ec"
   id="path12" />
			<path
   d="m 343.71,288.48 c 13.746,-8.303 29.854,-12.505 30.219,8.769 -8.414,6.718 -16.396,14.079 -21.428,18.934 -5.377,-11.463 -16.872,-14.001 -31.206,-7.605 l -0.565,-2.273 c 3.37,-7.871 -0.854,-21.828 -8.569,-27.459 5.066,-8.292 12.915,-12.305 23.535,-10.786 9.977,1.663 9.977,8.314 6.651,18.291 l 1.38,2.13 z"
   fill="#d8d6ec"
   id="path14" />
			<path
   d="m 315.7,432.64 c -3.425,-1.341 -6.463,-3.148 -8.27,-4.955 -8.214,-6.574 -13.192,-18.025 -16.507,-29.532 12.926,-0.089 26.328,-0.654 39.565,-2.162 l 0.211,1.763 c 2.273,6.252 3.381,16.396 5.188,26.572 l -0.2,0.033 c 1.22,12.13 -10.8,11.88 -19.98,8.29 z"
   fill="#c9c8e8"
   id="path16" />
			<path
   d="m 118.22,273.83 -0.166,0.066 c -9.245,-10.177 -14.844,-24.344 -18.679,-38.19 -1.508,-5.421 -2.749,-10.797 -3.836,-15.864 -2.583,-11.584 -5.798,-23.812 -12.227,-33.467 -5.798,-8.37 -14.167,-14.167 -20.597,-21.24 -2.383,-2.716 -4.135,-5.587 -5.31,-8.558 -2.616,-6.541 -2.494,-13.513 -0.443,-20.076 1.308,-4.224 3.425,-8.292 6.108,-11.961 2.461,-3.37 5.399,-6.407 8.658,-8.957 9.644,-7.727 19.3,-7.084 30.885,-5.798 7.804,0.976 15.442,2.771 22.249,6.053 6.674,3.215 12.56,7.86 17.016,14.544 16.595,23.978 12.638,76.147 46.482,84.118 3.259,-4.312 9.567,-4.323 14.012,-4.955 4.989,-1.12 14.744,-4.135 20.242,-2.893 0.887,0.188 1.663,0.51 2.284,0.953 -2.583,3.869 -14.167,9.013 -12.87,14.167 0.643,4.501 16.085,7.716 19.943,10.287 -0.643,4.512 -19.943,5.155 -24.455,5.798 -3.858,1.286 -5.787,0.643 -4.501,4.501 0.643,2.583 3.215,5.798 4.501,7.727 1.929,3.858 10.299,16.739 6.441,20.597 -1.929,1.286 -7.727,-0.643 -9.656,-0.643 -5.798,-1.286 -11.584,-2.572 -16.739,-3.869 -3.215,-0.643 -7.716,-2.572 -9.002,0.654 -0.643,1.929 1.286,5.787 1.929,7.716 v 12.227 c 0,1.929 1.286,7.727 0,9.656 -3.215,5.155 -26.384,-12.87 -31.539,-14.799 -1.929,2.572 -1.929,9.656 -2.572,13.513 -0.466,2.805 0.765,8.347 0.233,12.394 -0.2,1.508 -0.643,2.816 -1.519,3.691 -5.798,-2.572 -10.941,-12.87 -14.156,-18.657 -4,-5.75 -10.06,-11.99 -12.69,-18.74 z M 95.534,140.04 c 1.286,-3.869 0.643,-7.084 -3.869,-8.37 -2.572,-1.286 -7.716,-2.572 -9.013,0 -1.286,1.929 1.297,9.656 1.94,10.942 4.501,0.64 8.359,3.21 10.942,-2.57 z"
   fill="#ffdd00"
   id="path18" />
			<path
   d="m 131.57,76.959 c 0,9.013 0,18.025 -2.583,26.384 -0.565,3.437 -1.652,9.39 -4.135,12.493 -6.807,-3.281 -14.445,-5.077 -22.249,-6.053 -11.584,-1.286 -21.24,-1.929 -30.885,5.798 -3.259,2.55 -6.197,5.587 -8.658,8.957 l -1.641,-0.599 c -5.155,-4.501 -23.812,-23.812 -18.668,-30.885 7.084,2.572 11.584,9.002 18.668,11.584 3.215,-3.869 -1.286,-28.324 9.002,-19.311 3.869,3.215 7.727,9.656 9.013,1.929 1.286,-4.501 1.286,-10.299 3.869,-13.513 6.43,5.144 7.073,14.799 12.227,20.597 5.144,-7.084 8.359,-16.096 12.87,-23.812 3.215,-7.084 6.43,-13.513 9.644,-20.597 0.654,-1.929 1.297,-5.155 3.869,-5.798 2.572,3.869 3.215,8.37 4.501,12.227 1.93,7.083 5.15,13.524 5.15,20.597 z"
   fill="#e23627"
   id="path20" />
			<path
   d="m 91.665,131.67 c 4.512,1.286 5.155,4.501 3.869,8.37 -2.583,5.787 -6.441,3.215 -10.942,2.572 -0.643,-1.286 -3.226,-9.013 -1.94,-10.942 1.297,-2.58 6.441,-1.29 9.013,0 z"
   fill="#fcfbfa"
   id="path22" />
			<path
   d="m 57.399,156.58 c 1.175,2.971 2.927,5.842 5.31,8.558 6.43,7.073 14.799,12.87 20.597,21.24 6.43,9.656 9.644,21.883 12.227,33.467 1.086,5.066 2.328,10.443 3.836,15.864 l -2.55,0.222 c -5.155,7.727 -10.299,7.727 -19.311,7.084 -7.727,-0.643 -12.87,-3.226 -16.085,-10.942 -3.226,-9.013 -1.286,-21.24 -1.286,-30.896 0,-9.013 0.643,-18.668 -0.654,-27.67 0,-4.512 -0.643,-12.239 -3.858,-16.096 l -0.044,-0.588 c 0.443,-0.033 0.887,-0.055 1.33,-0.055 l 0.488,-0.18 z"
   fill="#e23627"
   id="path24" />
			<path
   d="m 57.399,156.58 -0.488,0.188 c -0.443,0 -0.887,0.022 -1.33,0.055 -4.068,0.31 -8.181,1.94 -12.826,2.516 -6.441,1.286 -18.014,5.155 -24.455,2.583 -0.643,-5.798 12.227,-14.167 16.728,-16.739 7.084,-3.858 12.881,-7.716 21.24,-7.716 l 0.687,-0.964 c -2.05,6.56 -2.172,13.54 0.444,20.08 z"
   fill="#fffac0"
   id="path26" />
		</g>
		<g
   stroke="#602d91"
   stroke-width="7"
   stroke-miterlimit="10"
   fill="none"
   id="g78">
			<path
   d="m 193.35,215.33 c -1.752,-0.177 -3.425,-0.455 -5,-0.831 -33.844,-7.971 -29.887,-60.139 -46.482,-84.118 -4.456,-6.685 -10.343,-11.329 -17.016,-14.544 -6.807,-3.281 -14.445,-5.077 -22.249,-6.053 -11.584,-1.286 -21.24,-1.929 -30.885,5.798 -3.259,2.55 -6.197,5.587 -8.658,8.957 -2.683,3.669 -4.8,7.738 -6.108,11.961 -2.051,6.563 -2.173,13.536 0.443,20.076 1.175,2.971 2.927,5.842 5.31,8.558 6.43,7.073 14.799,12.87 20.597,21.24 6.43,9.656 9.644,21.883 12.227,33.467 1.086,5.066 2.328,10.443 3.836,15.864 3.836,13.846 9.434,28.013 18.679,38.19"
   id="path30" />
			<path
   d="m 56.269,137.46 c -8.359,0 -14.156,3.858 -21.24,7.716 -4.501,2.572 -17.371,10.941 -16.728,16.739 6.441,2.572 18.014,-1.297 24.455,-2.583 4.645,-0.576 8.758,-2.206 12.826,-2.516 0.443,-0.033 0.887,-0.055 1.33,-0.055"
   id="path32" />
			<path
   d="m 55.626,157.41 c 3.215,3.858 3.858,11.584 3.858,16.096 1.297,9.002 0.654,18.657 0.654,27.67 0,9.656 -1.94,21.883 1.286,30.896 3.215,7.716 8.359,10.299 16.085,10.942 9.013,0.643 14.156,0.643 19.311,-7.084"
   id="path34" />
			
			<path
   d="m 123.85,116.87 c 0.366,-0.288 0.698,-0.632 1.009,-1.031 2.483,-3.104 3.57,-9.057 4.135,-12.493 2.583,-8.359 2.583,-17.371 2.583,-26.384 0,-7.073 -3.226,-13.513 -5.155,-20.597 -1.286,-3.858 -1.929,-8.359 -4.501,-12.227 -2.572,0.643 -3.215,3.869 -3.869,5.798 -3.215,7.084 -6.43,13.513 -9.644,20.597 -4.512,7.716 -7.727,16.728 -12.87,23.812 -5.155,-5.798 -5.798,-15.453 -12.227,-20.597 -2.583,3.215 -2.583,9.013 -3.869,13.513 -1.286,7.727 -5.144,1.286 -9.013,-1.929 -10.287,-9.013 -5.787,15.442 -9.002,19.311 -7.084,-2.583 -11.584,-9.013 -18.668,-11.584 -5.144,7.073 13.513,26.384 18.668,30.885"
   id="path38" />
			<path
   d="m 117.41,271.32 c 0.211,0.843 0.477,1.674 0.809,2.505 2.638,6.751 8.691,12.992 12.715,18.735 3.215,5.787 8.359,16.085 14.156,18.657 0.876,-0.876 1.319,-2.184 1.519,-3.691 0.532,-4.046 -0.698,-9.589 -0.233,-12.394 0.643,-3.858 0.643,-10.941 2.572,-13.513 5.155,1.929 28.324,19.954 31.539,14.799 1.286,-1.929 0,-7.727 0,-9.656 v -12.227 c -0.643,-1.929 -2.572,-5.787 -1.929,-7.716 1.286,-3.226 5.787,-1.297 9.002,-0.654 5.155,1.297 10.942,2.583 16.739,3.869 1.929,0 7.727,1.929 9.656,0.643 3.858,-3.858 -4.512,-16.739 -6.441,-20.597 -1.286,-1.929 -3.858,-5.144 -4.501,-7.727 -1.286,-3.858 0.643,-3.215 4.501,-4.501 4.512,-0.643 23.812,-1.286 24.455,-5.798 -3.858,-2.572 -19.3,-5.787 -19.943,-10.287 -1.297,-5.155 10.287,-10.299 12.87,-14.167 -0.621,-0.443 -1.397,-0.765 -2.284,-0.953 -5.498,-1.242 -15.254,1.774 -20.242,2.893 -4.445,0.632 -10.753,0.643 -14.012,4.955 -0.055,0.055 -0.1,0.122 -0.144,0.188"
   id="path40" />
			<path
   d="m 222.63,206.54 c 9.977,-4.989 28.268,-1.663 39.908,-1.663 h 38.245 c 26.594,0 49.874,3.326 76.48,11.64 9.545,3.182 19.477,6.74 28.146,11.972 9.445,5.676 17.404,13.336 21.739,24.61 1.186,3.304 2.395,6.851 3.57,10.554 1.33,4.157 2.616,8.514 3.758,12.981 2.516,9.778 4.379,20.054 4.601,29.776 0.133,5.842 -0.321,11.485 -1.596,16.695 -0.843,3.492 -2.051,6.784 -3.68,9.811 -9.301,21.872 -24.71,36.549 -43.345,46.338 -17.881,9.401 -38.722,14.3 -59.962,16.728 v 0.011 c -13.236,1.508 -26.639,2.073 -39.565,2.162 -10.432,0.089 -20.553,-0.133 -30.053,-0.399 -31.594,-1.663 -61.525,-19.943 -79.816,-44.886 -10.775,-14.822 -23.734,-29.643 -34.454,-45.34 -2.516,-3.68 -4.911,-7.405 -7.117,-11.196"
   id="path42" />
			<path
   d="m 405.53,233.14 c -0.366,-1.463 -0.388,-3.026 -0.122,-4.656 2.073,-13.236 22.648,-31.173 30.053,-38.578 23.28,-21.617 49.885,-39.897 78.154,-53.2 9.977,-4.989 19.954,-8.314 31.594,-11.64 3.326,0 18.28,-4.989 21.606,-4.989 9.977,4.989 6.651,23.28 4.989,33.257 -4.811,17.172 -16.429,32.359 -30.885,45.684 -20.508,18.912 -46.726,34.055 -67.212,45.761 -15.42,9.257 -27.98,14.212 -42.99,18.868 -1.175,0.366 -2.361,0.721 -3.57,1.086"
   id="path44" />
			<path
   d="m 538.56,199.89 c 0.743,-0.321 1.53,-0.61 2.361,-0.865 12.161,-3.869 32.869,-1.618 37.536,10.842 4.989,16.628 -4.989,33.257 -19.954,41.571 -12.216,7.228 -25.375,12.405 -39.021,16.096 -27.182,7.372 -56.337,8.846 -84.018,8.846"
   id="path46" />
			<path
   d="m 515.28,269.73 c 1.508,-0.765 2.971,-1.308 4.346,-1.663 19.865,-5.122 25.519,28.812 0.643,36.583 -7.006,2.162 -15.764,3.969 -25.131,5.133 -19.411,2.439 -41.449,2.151 -56.06,-3.37 -0.1,-0.022 -0.2,-0.066 -0.288,-0.1"
   id="path48" />
			<path
   d="m 495.33,311.3 c 0,14.966 -1.663,19.954 -16.628,23.28 -16.495,4.944 -26.45,-4.833 -41.216,-11.474 -0.122,-0.055 -0.233,-0.111 -0.355,-0.166"
   id="path50" />
			<path
   d="m 237.6,269.73 c -8.314,23.28 -8.314,56.537 6.651,76.491 19.954,24.943 56.537,23.28 84.794,21.617 46.56,-3.326 83.142,-38.245 74.828,-86.468 -6.784,-0.842 -18.735,6.94 -29.942,15.886 -8.414,6.718 -16.396,14.079 -21.428,18.934 -1.419,1.364 -2.605,2.528 -3.503,3.425"
   id="path52" />
			<path
   d="m 373.94,298 c 0,-0.255 0,-0.499 -0.011,-0.743 -0.366,-21.273 -16.473,-17.072 -30.219,-8.769 -4.911,2.971 -9.523,6.474 -13.003,9.511"
   id="path54" />
			<path
   d="m 342.34,286.36 c 3.326,-9.977 3.326,-16.628 -6.651,-18.291 -10.62,-1.519 -18.469,2.494 -23.535,10.786 -0.499,0.798 -0.953,1.641 -1.397,2.516"
   id="path56" />
			<path
   d="m 299.12,278.04 c 4.844,-2.694 9.345,-1.896 13.037,0.809 7.716,5.632 11.939,19.588 8.569,27.459"
   id="path58" />
			<path
   d="m 319.06,309.64 c 0.754,-0.377 1.485,-0.721 2.228,-1.053 14.334,-6.396 25.829,-3.858 31.206,7.605 1.685,3.592 2.771,8.059 3.148,13.403"
   id="path60" />
			<path
   d="m 390.57,379.47 c 0,23.269 6.651,66.503 -23.28,76.48 -21.883,7.66 -27.925,-12.05 -31.394,-31.627 -1.807,-10.177 -2.916,-20.32 -5.188,-26.572"
   id="path62" />
			<path
   d="m 360.64,457.62 c -1.896,14.256 -8.148,29.599 -16.263,43.234 -6.075,10.232 -13.192,19.477 -20.32,26.605"
   id="path64" />
			<path
   d="m 345.67,500.85 h -1.297 -43.589"
   id="path66" />
			<path
   d="m 345.67,494.2 c -8.314,-6.651 -19.954,-11.64 -29.931,-14.966"
   id="path68" />
			<path
   d="m 290.81,397.75 c 0.033,0.133 0.078,0.266 0.122,0.399 3.315,11.507 8.292,22.958 16.507,29.532 1.807,1.807 4.844,3.614 8.27,4.955 9.179,3.592 21.196,3.836 19.987,-8.281"
   id="path70" />
			<path
   d="m 315.74,431.01 c 0,0.543 -0.011,1.086 -0.033,1.63 -0.355,9.29 -3.691,18.513 -9.09,26.284 -0.488,0.687 -0.976,1.364 -1.497,2.029 -7.926,10.321 -19.61,17.637 -32.603,18.28"
   id="path72" />
			<path
   d="m 307.44,459.28 c -0.266,-0.111 -0.543,-0.233 -0.82,-0.355 -11.706,-5.033 -30.43,-13.258 -44.076,-4.955"
   id="path74" />
			<path
   d="m 305.12,460.95 c -8.314,2.383 -23.768,-3.326 -39.254,3.315"
   id="path76" />
		</g>
	<path
   style="fill:#ffdd00;fill-opacity:1;stroke:#ffdd00;stroke-width:0.512461;stroke-miterlimit:4;stroke-dasharray:none;stroke-opacity:1"
   d="m 487.22471,392.73369 c 0.0319,-0.6111 0.15318,-1.47278 0.2694,-1.91484 0.54298,-2.06516 1.86176,-3.75176 3.39215,-4.33826 0.34734,-0.13311 0.76487,-0.17565 1.69112,-0.1723 1.23111,0.004 1.37503,0.0275 4.21005,0.67404 l 1.0328,0.23553 -4.41504,2.74313 c -2.42827,1.50873 -4.82533,2.99979 -5.3268,3.31347 l -0.91176,0.57033 z"
   id="path13180"
   transform="rotate(-180,291.62934,264.96694)" /><path
   style="fill:#ffdd00;fill-opacity:1;stroke:#ffdd00;stroke-width:0.512461;stroke-miterlimit:4;stroke-dasharray:none;stroke-opacity:1"
   d="m 495.90837,399.59834 c -0.85555,-0.14013 -2.52837,-0.62178 -3.46815,-0.99857 -0.60101,-0.24097 -1.2657,-0.49475 -1.47709,-0.56396 -0.21139,-0.0692 -0.38435,-0.16387 -0.38435,-0.21035 0,-0.0907 9.37423,-5.94664 9.51936,-5.94664 0.0477,0 0.18783,0.47275 0.31139,1.05054 0.62719,2.93281 0.66522,4.38502 0.13951,5.32671 -0.36255,0.64944 -1.03465,1.1422 -1.77426,1.30081 -0.49194,0.1055 -2.31447,0.13186 -2.86641,0.0415 z"
   id="path13219"
   transform="rotate(-180,291.62934,264.96694)" /><path
   style="fill:none;stroke:#602d91;stroke-width:5;stroke-linecap:butt;stroke-linejoin:miter;stroke-miterlimit:4;stroke-dasharray:none;stroke-opacity:1"
   d="M 102.98036,128.26705 72.64268,147.12561"
   id="path6283" /><path
   style="fill:none;stroke:#602d91;stroke-width:5;stroke-linecap:butt;stroke-linejoin:miter;stroke-miterlimit:4;stroke-dasharray:none;stroke-opacity:1"
   d="m 81.047036,124.67983 18.85856,30.33768"
   id="path6283-1" /></g>
</g>
<metadata
   id="metadata83"><rdf:RDF><cc:Work><dc:format>image/svg+xml</dc:format><dc:type
         rdf:resource="http://purl.org/dc/dcmitype/StillImage" /><cc:license
         rdf:resource="http://creativecommons.org/publicdomain/zero/1.0/" /><dc:publisher><cc:Agent
           rdf:about="http://openclipart.org/"><dc:title>Openclipart</dc:title></cc:Agent></dc:publisher></cc:Work><cc:License
       rdf:about="http://creativecommons.org/licenses/publicdomain/"><cc:permits
         rdf:resource="http://creativecommons.org/ns#Reproduction" /><cc:permits
         rdf:resource="http://creativecommons.org/ns#Distribution" /><cc:permits
         rdf:resource="http://creativecommons.org/ns#DerivativeWorks" /></cc:License></rdf:RDF></metadata></svg>
